<?xml version="1.0" encoding="UTF-8" standalone="no"?>
<!-- Created with Inkscape (http://www.inkscape.org/) -->

<svg
   width="105mm"
   height="74mm"
   viewBox="0 0 105 74"
   version="1.1"
   id="svg1"
   inkscape:version="1.3.2 (091e20e, 2023-11-25, custom)"
   sodipodi:docname="logo.svg"
   xmlns:inkscape="http://www.inkscape.org/namespaces/inkscape"
   xmlns:sodipodi="http://sodipodi.sourceforge.net/DTD/sodipodi-0.dtd"
   xmlns="http://www.w3.org/2000/svg"
   xmlns:svg="http://www.w3.org/2000/svg">
  <sodipodi:namedview
     id="namedview1"
     pagecolor="#ffffff"
     bordercolor="#999999"
     borderopacity="1"
     inkscape:showpageshadow="2"
     inkscape:pageopacity="0"
     inkscape:pagecheckerboard="0"
     inkscape:deskcolor="#d1d1d1"
     inkscape:document-units="mm"
     inkscape:zoom="1.0368618"
     inkscape:cx="291.74573"
     inkscape:cy="242.55885"
     inkscape:window-width="1920"
     inkscape:window-height="1051"
     inkscape:window-x="-9"
     inkscape:window-y="-9"
     inkscape:window-maximized="1"
     inkscape:current-layer="layer1" />
  <defs
     id="defs1" />
  <g
     inkscape:label="图层 1"
     inkscape:groupmode="layer"
     id="layer1">
    <g
       id="g131"
       transform="matrix(1.126541,0,0,1.126541,-32.397028,-83.269269)">
      <path
         style="fill:#ff942c;fill-opacity:1;stroke:none;stroke-width:0.954934;stroke-linecap:round;stroke-linejoin:round;stroke-dasharray:none;stroke-dashoffset:0;stroke-opacity:0.5"
         id="path5"
         sodipodi:type="arc"
         sodipodi:cx="99.731705"
         sodipodi:cy="-118.20515"
         sodipodi:rx="14.525211"
         sodipodi:ry="13.723796"
         sodipodi:start="6.2723285"
         sodipodi:end="3.1415927"
         sodipodi:open="true"
         sodipodi:arc-type="arc"
         d="m 114.25606,-118.35414 a 14.525211,13.723796 0 0 1 -7.17089,11.98417 14.525211,13.723796 0 0 1 -14.570501,0.0747 14.525211,13.723796 0 0 1 -7.308176,-11.90991"
         transform="scale(1,-1)" />
      <g
         id="g130"
         transform="translate(-0.92407821,-4.0790765)">
        <path
           d="m 62.003,125.051 c 8.5634,-1.555 7.8318,-2.605 11.9812,-2.58 h 8e-4 c 4.1821,0.025 4.3532,2.742 9.0504,2.721 h 9e-4 c 4.7097,-0.021 5.278,-2.552 12.4623,-2.596 h 9e-4 c 5.0405,-0.03 6.6065,2.708 11.7835,2.674 v 0 c 3.933,-0.026 5.407,-1.551 7.943,-2.748"
           style="fill:none;fill-opacity:0;stroke:#00cacf;stroke-width:0.711457px;stroke-opacity:1"
           id="path119" />
        <path
           d="m 62.1299,124.668 c 8.5635,-1.556 7.8318,-2.605 11.9813,-2.581 h 7e-4 c 4.1821,0.025 4.3532,2.742 9.0504,2.722 h 8e-4 c 4.7098,-0.021 5.278,-2.552 12.4624,-2.596 h 8e-4 c 5.0407,-0.031 6.6067,2.708 11.7837,2.674 v 0 c 3.933,-0.026 5.407,-1.551 7.943,-2.749"
           style="fill:none;fill-opacity:0;stroke:#00c6cf;stroke-width:0.711457px;stroke-opacity:1"
           id="path120" />
        <path
           d="m 62.2569,124.284 c 8.5634,-1.555 7.8317,-2.605 11.9812,-2.58 h 6e-4 c 4.1822,0.025 4.3533,2.742 9.0506,2.721 h 7e-4 c 4.7098,-0.02 5.278,-2.552 12.4624,-2.596 h 8e-4 c 5.0408,-0.03 6.6068,2.708 11.7838,2.674 v 0 c 3.933,-0.025 5.407,-1.551 7.942,-2.748"
           style="fill:none;fill-opacity:0;stroke:#00c2cf;stroke-width:0.711457px;stroke-opacity:1"
           id="path121" />
        <path
           d="m 62.3838,123.901 c 8.5634,-1.556 7.8317,-2.605 11.9812,-2.581 h 6e-4 c 4.1822,0.025 4.3533,2.742 9.0506,2.722 h 6e-4 c 4.71,-0.021 5.2781,-2.552 12.4625,-2.596 h 7e-4 c 5.041,-0.03 6.607,2.708 11.784,2.674 v 0 c 3.933,-0.026 5.407,-1.551 7.942,-2.749"
           style="fill:none;fill-opacity:0;stroke:#00bfcf;stroke-width:0.711457px;stroke-opacity:1"
           id="path122" />
        <path
           d="m 62.5107,123.517 c 8.5634,-1.555 7.8318,-2.605 11.9813,-2.58 h 4e-4 c 4.1824,0.025 4.3534,2.742 9.0507,2.721 h 6e-4 c 4.71,-0.02 5.2781,-2.552 12.4626,-2.595 h 6e-4 c 5.0411,-0.031 6.6071,2.707 11.7841,2.673 v 0 c 3.933,-0.025 5.407,-1.551 7.942,-2.748"
           style="fill:none;fill-opacity:0;stroke:#00bbcf;stroke-width:0.711457px;stroke-opacity:1"
           id="path123" />
        <path
           d="m 62.6377,123.134 c 8.5634,-1.556 7.8317,-2.605 11.9812,-2.581 h 4e-4 c 4.1824,0.026 4.3534,2.742 9.0508,2.722 h 4e-4 c 4.7101,-0.021 5.2782,-2.552 12.4627,-2.596 h 5e-4 c 5.0413,-0.03 6.6073,2.708 11.7843,2.674 v 0 c 3.933,-0.026 5.407,-1.551 7.942,-2.748"
           style="fill:none;fill-opacity:0;stroke:#00b7cf;stroke-width:0.711457px;stroke-opacity:1"
           id="path124" />
        <path
           d="m 62.7646,122.751 c 8.5634,-1.556 7.8317,-2.606 11.9812,-2.581 h 4e-4 c 4.1824,0.025 4.3534,2.742 9.0508,2.722 h 4e-4 c 4.7101,-0.021 5.2782,-2.552 12.4627,-2.596 h 4e-4 c 5.0415,-0.031 6.6075,2.707 11.7845,2.674 v 0 c 3.933,-0.026 5.407,-1.552 7.942,-2.749"
           style="fill:none;fill-opacity:0;stroke:#00b4cf;stroke-width:0.711457px;stroke-opacity:1"
           id="path125" />
        <path
           d="m 62.8915,122.367 c 8.5634,-1.555 7.8318,-2.605 11.9812,-2.58 h 3e-4 c 4.1826,0.025 4.3536,2.742 9.0509,2.721 h 3e-4 c 4.7102,-0.02 5.2783,-2.552 12.4629,-2.596 h 3e-4 c 5.0416,-0.03 6.6076,2.708 11.7846,2.674 v 0 c 3.933,-0.026 5.407,-1.551 7.942,-2.748"
           style="fill:none;fill-opacity:0;stroke:#00b0cf;stroke-width:0.711457px;stroke-opacity:1"
           id="path126" />
        <path
           d="m 63.0184,121.984 c 8.5635,-1.556 7.8318,-2.605 11.9813,-2.581 h 2e-4 c 4.1826,0.025 4.3536,2.742 9.0509,2.722 h 3e-4 c 4.7103,-0.021 5.2783,-2.552 12.4629,-2.596 h 2e-4 c 5.0418,-0.031 6.6078,2.708 11.7848,2.674 v 0 c 3.933,-0.026 5.407,-1.551 7.942,-2.749"
           style="fill:none;fill-opacity:0;stroke:#00accf;stroke-width:0.711457px;stroke-opacity:1"
           id="path127" />
        <path
           d="m 63.1454,121.6 c 8.5634,-1.555 7.8317,-2.605 11.9812,-2.58 h 1e-4 c 4.1827,0.025 4.3537,2.742 9.0511,2.721 h 10e-5 c 4.7104,-0.02 5.2784,-2.552 12.463,-2.596 h 2e-4 c 5.0409,-0.03 6.6069,2.708 11.7849,2.674 v 0 c 3.933,-0.026 5.407,-1.551 7.942,-2.748"
           style="fill:none;fill-opacity:0;stroke:#00a9cf;stroke-width:0.711457px;stroke-opacity:1"
           id="path128" />
        <path
           d="m 63.2723,121.217 c 8.5634,-1.556 7.8318,-2.605 11.9812,-2.581 h 1e-4 c 4.1827,0.025 4.3537,2.742 9.0511,2.722 h 1e-4 c 4.7104,-0.021 5.2783,-2.552 12.463,-2.596 h 1e-4 c 5.0411,-0.031 6.6071,2.708 11.7851,2.674 v 0 c 3.933,-0.026 5.407,-1.551 7.942,-2.749"
           style="fill:none;fill-opacity:0;stroke:#00a5cf;stroke-width:0.711457px;stroke-opacity:1"
           id="path129" />
        <path
           d="m 63.3992,120.833 c 8.5634,-1.555 7.8318,-2.605 11.9813,-2.58 v 0 c 4.1828,0.025 4.3537,2.742 9.0511,2.721 v 0 c 4.7105,-0.02 5.2784,-2.552 12.4632,-2.595 v 0 c 5.0412,-0.031 6.6072,2.707 11.7842,2.673 h 0.001 c 3.933,-0.025 5.407,-1.551 7.942,-2.748"
           style="fill:none;fill-opacity:0;stroke:#00a2cf;stroke-width:0.711457px;stroke-opacity:1"
           id="path130" />
      </g>
      <path
         sodipodi:type="star"
         style="fill:#009450;fill-opacity:1;stroke:#009450;stroke-width:1.865;stroke-linecap:square;stroke-linejoin:round;stroke-dasharray:none;stroke-opacity:1"
         id="path3"
         inkscape:flatsided="false"
         sodipodi:sides="3"
         sodipodi:cx="27.426489"
         sodipodi:cy="76.505463"
         sodipodi:r1="30.016676"
         sodipodi:r2="15.008338"
         sodipodi:arg1="0.53629581"
         sodipodi:arg2="1.5834934"
         inkscape:rounded="0"
         inkscape:randomized="0"
         d="M 53.229041,91.842644 27.235932,91.512591 1.2428241,91.182538 14.525213,68.836871 27.807601,46.491206 40.518322,69.166926 Z"
         inkscape:transform-center-x="0.10299121"
         inkscape:transform-center-y="-4.9572313"
         transform="matrix(0.5404771,0,0,0.67550662,37.036378,58.712145)" />
      <path
         id="path3-5"
         style="fill:#009450;fill-opacity:0.99;stroke:#009450;stroke-width:0.960265;stroke-linecap:square;stroke-linejoin:round"
         inkscape:transform-center-x="0.093770903"
         inkscape:transform-center-y="-3.9535662"
         d="m 72.029244,120.82405 -5.762651,-0.0801 -6.844515,-15.94459 0.09752,-8.407985 6.254825,12.216345 z"
         sodipodi:nodetypes="cccccc" />
    </g>
  </g>
</svg>
